<svg xmlns="http://www.w3.org/2000/svg" viewBox="0 0 995.03059 157.28842"><defs><style>.cls-1{isolation:isolate;}.cls-2{opacity:0.15;mix-blend-mode:multiply;}.cls-3{fill:#fff;}.cls-4{fill:#fcfcfc;}.cls-5{fill:#f9f9f9;}.cls-6{fill:#f6f6f6;}.cls-7{fill:#f4f4f4;}.cls-8{fill:#f1f1f1;}.cls-9{fill:#eee;}.cls-10{fill:#ebebeb;}.cls-11{fill:#e8e8e8;}.cls-12{fill:#e5e5e5;}.cls-13{fill:#e2e2e2;}.cls-14{fill:#dfdfdf;}.cls-15{fill:#ddd;}.cls-16{fill:#dadada;}.cls-17{fill:#d7d7d7;}.cls-18{fill:#d4d4d4;}.cls-19{fill:#d1d1d1;}.cls-20{fill:#cecece;}.cls-21{fill:#cbcbcb;}.cls-22{fill:#c9c9c9;}.cls-23{fill:#c6c6c6;}.cls-24{fill:#c3c3c3;}.cls-25{fill:silver;}.cls-26{fill:#bdbdbd;}.cls-27{fill:#bababa;}.cls-28{fill:#b7b7b7;}.cls-29{fill:#b5b5b5;}.cls-30{fill:#b2b2b2;}.cls-31{fill:#afafaf;}.cls-32{fill:#acacac;}.cls-33{fill:#a9a9a9;}.cls-34{fill:#a6a6a6;}.cls-35{fill:#a3a3a3;}.cls-36{fill:#a0a0a0;}.cls-37{fill:#9e9e9e;}.cls-38{fill:#9b9b9b;}.cls-39{fill:#989898;}.cls-40{fill:#959595;}.cls-41{fill:#929292;}.cls-42{fill:#8f8f8f;}.cls-43{fill:#8c8c8c;}.cls-44{fill:#8a8a8a;}.cls-45{fill:#878787;}.cls-46{fill:#848484;}.cls-47{fill:#818181;}.cls-48{fill:#7e7e7e;}.cls-49{fill:#7b7b7b;}.cls-50{fill:#787878;}.cls-51{fill:#757575;}.cls-52{fill:#737373;}.cls-53{fill:#707070;}.cls-54{fill:#6d6d6d;}.cls-55{fill:#6a6a6a;}.cls-56{fill:#676767;}.cls-57{fill:#646464;}.cls-58{fill:#616161;}.cls-59{fill:#5f5f5f;}.cls-60{fill:#5c5c5c;}.cls-61{fill:#595959;}.cls-62{fill:#565656;}.cls-63{fill:#535353;}.cls-64{fill:#505050;}.cls-65{fill:#4d4d4d;}.cls-66{fill:#4a4a4a;}.cls-67{fill:#484848;}.cls-68{fill:#454545;}.cls-69{fill:#424242;}.cls-70{fill:#3f3f3f;}.cls-71{fill:#3c3c3c;}.cls-72{fill:#393939;}.cls-73{fill:#363636;}.cls-74{fill:#343434;}.cls-75{fill:#313131;}.cls-76{fill:#2e2e2e;}.cls-77{fill:#2b2b2b;}.cls-78{fill:#282828;}.cls-79{fill:#252525;}.cls-80{fill:#222;}.cls-81{fill:#202020;}.cls-82{fill:#1d1d1d;}.cls-83{fill:#1a1a1a;}.cls-84{fill:#171717;}.cls-85{fill:#141414;}.cls-86{fill:#111;}.cls-87{fill:#0e0e0e;}.cls-88{fill:#0b0b0b;}.cls-89{fill:#090909;}.cls-90{fill:#060606;}.cls-91{fill:#030303;}</style></defs><g class="cls-1"><g id="Layer_1" data-name="Layer 1"><g class="cls-2"><path class="cls-3" d="M2718.92788,486.54611v82.89774c0,6.17642,29.67233,11.20133,66.14429,11.20133h840.78344c36.472,0,66.1443-5.02491,66.1443-11.20133V486.54611c0-6.17641-29.67233-11.20133-66.1443-11.20133H2785.07217C2748.60021,475.34478,2718.92788,480.3697,2718.92788,486.54611Z" transform="translate(-2696.96933 -423.35677)"/><path class="cls-4" d="M2718.68115,485.962v82.89775c0,6.17641,29.67233,11.20133,66.1443,11.20133h840.78344c36.472,0,66.1443-5.02492,66.1443-11.20133V485.962c0-6.17641-29.67234-11.20132-66.1443-11.20132H2784.82545C2748.35348,474.76065,2718.68115,479.78556,2718.68115,485.962Z" transform="translate(-2696.96933 -423.35677)"/><path class="cls-5" d="M2718.43443,485.37784v82.89774c0,6.17642,29.67233,11.20133,66.14429,11.20133h840.78344c36.472,0,66.1443-5.02491,66.1443-11.20133V485.37784c0-6.17641-29.67233-11.20133-66.1443-11.20133H2784.57872C2748.10676,474.17651,2718.43443,479.20143,2718.43443,485.37784Z" transform="translate(-2696.96933 -423.35677)"/><path class="cls-6" d="M2718.1877,484.7937v82.89775c0,6.17641,29.67233,11.20133,66.1443,11.20133h840.78344c36.472,0,66.1443-5.02492,66.1443-11.20133V484.7937c0-6.17641-29.67234-11.20132-66.1443-11.20132H2784.332C2747.86,473.59238,2718.1877,478.61729,2718.1877,484.7937Z" transform="translate(-2696.96933 -423.35677)"/><path class="cls-7" d="M2717.941,484.20957v82.89775c0,6.17641,29.67234,11.20132,66.1443,11.20132h840.78344c36.472,0,66.1443-5.02491,66.1443-11.20132V484.20957c0-6.17641-29.67233-11.20133-66.1443-11.20133H2784.08527C2747.61331,473.00824,2717.941,478.03316,2717.941,484.20957Z" transform="translate(-2696.96933 -423.35677)"/><path class="cls-8" d="M2717.69425,483.62543v82.89775c0,6.17641,29.67233,11.20133,66.1443,11.20133H3624.622c36.472,0,66.14429-5.02492,66.14429-11.20133V483.62543c0-6.17641-29.67233-11.20132-66.14429-11.20132H2783.83855C2747.36658,472.42411,2717.69425,477.449,2717.69425,483.62543Z" transform="translate(-2696.96933 -423.35677)"/><path class="cls-9" d="M2717.44752,483.0413V565.939c0,6.17641,29.67234,11.20132,66.1443,11.20132h840.78344c36.472,0,66.1443-5.02491,66.1443-11.20132V483.0413c0-6.17641-29.67233-11.20133-66.1443-11.20133H2783.59182C2747.11986,471.84,2717.44752,476.86489,2717.44752,483.0413Z" transform="translate(-2696.96933 -423.35677)"/><path class="cls-10" d="M2717.2008,482.45716v82.89775c0,6.17641,29.67233,11.20133,66.1443,11.20133h840.78344c36.472,0,66.14429-5.02492,66.14429-11.20133V482.45716c0-6.17641-29.67233-11.20132-66.14429-11.20132H2783.3451C2746.87313,471.25584,2717.2008,476.28075,2717.2008,482.45716Z" transform="translate(-2696.96933 -423.35677)"/><path class="cls-11" d="M2716.95407,481.873v82.89775c0,6.17641,29.67234,11.20132,66.1443,11.20132h840.78344c36.472,0,66.1443-5.02491,66.1443-11.20132V481.873c0-6.17641-29.67233-11.20133-66.1443-11.20133H2783.09837C2746.62641,470.6717,2716.95407,475.69662,2716.95407,481.873Z" transform="translate(-2696.96933 -423.35677)"/><path class="cls-12" d="M2716.70735,481.28889v82.89775c0,6.17641,29.67233,11.20133,66.1443,11.20133h840.78344c36.472,0,66.14429-5.02492,66.14429-11.20133V481.28889c0-6.17641-29.67233-11.20132-66.14429-11.20132H2782.85165C2746.37968,470.08757,2716.70735,475.11248,2716.70735,481.28889Z" transform="translate(-2696.96933 -423.35677)"/><path class="cls-13" d="M2716.46062,480.70476v82.89775c0,6.17641,29.67234,11.20132,66.1443,11.20132h840.78344c36.472,0,66.1443-5.02491,66.1443-11.20132V480.70476c0-6.17641-29.67233-11.20133-66.1443-11.20133H2782.60492C2746.133,469.50343,2716.46062,474.52835,2716.46062,480.70476Z" transform="translate(-2696.96933 -423.35677)"/><path class="cls-14" d="M2716.2139,480.12062v82.89775c0,6.17641,29.67233,11.20133,66.1443,11.20133h840.78343c36.472,0,66.1443-5.02492,66.1443-11.20133V480.12062c0-6.17641-29.67233-11.20132-66.1443-11.20132H2782.3582C2745.88623,468.9193,2716.2139,473.94421,2716.2139,480.12062Z" transform="translate(-2696.96933 -423.35677)"/><path class="cls-15" d="M2715.96717,479.53649v82.89775c0,6.17641,29.67233,11.20133,66.1443,11.20133h840.78344c36.472,0,66.1443-5.02492,66.1443-11.20133V479.53649c0-6.17641-29.67233-11.20133-66.1443-11.20133H2782.11147C2745.6395,468.33516,2715.96717,473.36008,2715.96717,479.53649Z" transform="translate(-2696.96933 -423.35677)"/><path class="cls-16" d="M2715.72045,478.95235V561.8501c0,6.17641,29.67233,11.20133,66.1443,11.20133h840.78343c36.472,0,66.1443-5.02492,66.1443-11.20133V478.95235c0-6.17641-29.67233-11.20132-66.1443-11.20132H2781.86475C2745.39278,467.751,2715.72045,472.77594,2715.72045,478.95235Z" transform="translate(-2696.96933 -423.35677)"/><path class="cls-17" d="M2715.47372,478.36822V561.266c0,6.17641,29.67233,11.20133,66.1443,11.20133h840.78344c36.472,0,66.1443-5.02492,66.1443-11.20133V478.36822c0-6.17641-29.67233-11.20133-66.1443-11.20133H2781.618C2745.14605,467.16689,2715.47372,472.19181,2715.47372,478.36822Z" transform="translate(-2696.96933 -423.35677)"/><path class="cls-18" d="M2715.227,477.78408v82.89775c0,6.17641,29.67233,11.20133,66.1443,11.20133h840.78343c36.472,0,66.1443-5.02492,66.1443-11.20133V477.78408c0-6.17641-29.67233-11.20132-66.1443-11.20132H2781.3713C2744.89933,466.58276,2715.227,471.60767,2715.227,477.78408Z" transform="translate(-2696.96933 -423.35677)"/><path class="cls-19" d="M2714.98027,477.2V560.0977c0,6.17641,29.67233,11.20133,66.1443,11.20133H3621.908c36.472,0,66.1443-5.02492,66.1443-11.20133V477.2c0-6.17641-29.67234-11.20133-66.1443-11.20133H2781.12457C2744.6526,465.99862,2714.98027,471.02354,2714.98027,477.2Z" transform="translate(-2696.96933 -423.35677)"/><path class="cls-20" d="M2714.73355,476.61581v82.89775c0,6.17642,29.67233,11.20133,66.14429,11.20133h840.78344c36.472,0,66.1443-5.02491,66.1443-11.20133V476.61581c0-6.17641-29.67233-11.20132-66.1443-11.20132H2780.87784C2744.40588,465.41449,2714.73355,470.4394,2714.73355,476.61581Z" transform="translate(-2696.96933 -423.35677)"/><path class="cls-21" d="M2714.48682,476.03168v82.89775c0,6.17641,29.67233,11.20133,66.1443,11.20133h840.78344c36.472,0,66.1443-5.02492,66.1443-11.20133V476.03168c0-6.17641-29.67234-11.20133-66.1443-11.20133H2780.63112C2744.15915,464.83035,2714.48682,469.85527,2714.48682,476.03168Z" transform="translate(-2696.96933 -423.35677)"/><path class="cls-22" d="M2714.2401,475.44754v82.89775c0,6.17642,29.67233,11.20133,66.14429,11.20133h840.78344c36.472,0,66.1443-5.02491,66.1443-11.20133V475.44754c0-6.17641-29.67233-11.20132-66.1443-11.20132H2780.38439C2743.91243,464.24622,2714.2401,469.27113,2714.2401,475.44754Z" transform="translate(-2696.96933 -423.35677)"/><path class="cls-23" d="M2713.99337,474.86341v82.89775c0,6.17641,29.67233,11.20133,66.1443,11.20133h840.78344c36.472,0,66.1443-5.02492,66.1443-11.20133V474.86341c0-6.17641-29.67234-11.20133-66.1443-11.20133H2780.13767C2743.6657,463.66208,2713.99337,468.687,2713.99337,474.86341Z" transform="translate(-2696.96933 -423.35677)"/><path class="cls-24" d="M2713.74665,474.27927V557.177c0,6.17642,29.67233,11.20133,66.14429,11.20133h840.78344c36.472,0,66.1443-5.02491,66.1443-11.20133V474.27927c0-6.17641-29.67233-11.20132-66.1443-11.20132H2779.89094C2743.419,463.078,2713.74665,468.10286,2713.74665,474.27927Z" transform="translate(-2696.96933 -423.35677)"/><path class="cls-25" d="M2713.49992,473.69514v82.89775c0,6.17641,29.67233,11.20133,66.1443,11.20133h840.78344c36.472,0,66.1443-5.02492,66.1443-11.20133V473.69514c0-6.17641-29.67234-11.20133-66.1443-11.20133H2779.64422C2743.17225,462.49381,2713.49992,467.51873,2713.49992,473.69514Z" transform="translate(-2696.96933 -423.35677)"/><path class="cls-26" d="M2713.25319,473.111v82.89775c0,6.17642,29.67234,11.20133,66.1443,11.20133h840.78344c36.472,0,66.1443-5.02491,66.1443-11.20133V473.111c0-6.17641-29.67233-11.20132-66.1443-11.20132H2779.39749C2742.92553,461.90968,2713.25319,466.93459,2713.25319,473.111Z" transform="translate(-2696.96933 -423.35677)"/><path class="cls-27" d="M2713.00647,472.52687v82.89775c0,6.17641,29.67233,11.20133,66.1443,11.20133h840.78344c36.472,0,66.14429-5.02492,66.14429-11.20133V472.52687c0-6.17641-29.67233-11.20133-66.14429-11.20133H2779.15077C2742.6788,461.32554,2713.00647,466.35046,2713.00647,472.52687Z" transform="translate(-2696.96933 -423.35677)"/><path class="cls-28" d="M2712.75974,471.94273v82.89775c0,6.17642,29.67234,11.20133,66.1443,11.20133h840.78344c36.472,0,66.1443-5.02491,66.1443-11.20133V471.94273c0-6.17641-29.67233-11.20132-66.1443-11.20132H2778.904C2742.43208,460.74141,2712.75974,465.76632,2712.75974,471.94273Z" transform="translate(-2696.96933 -423.35677)"/><path class="cls-29" d="M2712.513,471.3586v82.89775c0,6.17641,29.67233,11.20133,66.1443,11.20133h840.78344c36.472,0,66.14429-5.02492,66.14429-11.20133V471.3586c0-6.17641-29.67233-11.20133-66.14429-11.20133H2778.65732C2742.18535,460.15727,2712.513,465.18219,2712.513,471.3586Z" transform="translate(-2696.96933 -423.35677)"/><path class="cls-30" d="M2712.26629,470.77446v82.89775c0,6.17642,29.67234,11.20133,66.1443,11.20133H3619.194c36.472,0,66.1443-5.02491,66.1443-11.20133V470.77446c0-6.17641-29.67233-11.20132-66.1443-11.20132H2778.41059C2741.93863,459.57314,2712.26629,464.59805,2712.26629,470.77446Z" transform="translate(-2696.96933 -423.35677)"/><path class="cls-31" d="M2712.01957,470.19033v82.89775c0,6.17641,29.67233,11.20133,66.1443,11.20133h840.78344c36.472,0,66.14429-5.02492,66.14429-11.20133V470.19033c0-6.17641-29.67233-11.20133-66.14429-11.20133H2778.16387C2741.6919,458.989,2712.01957,464.01392,2712.01957,470.19033Z" transform="translate(-2696.96933 -423.35677)"/><path class="cls-32" d="M2711.77284,469.60619V552.504c0,6.17641,29.67234,11.20132,66.1443,11.20132h840.78344c36.472,0,66.1443-5.02491,66.1443-11.20132V469.60619c0-6.17641-29.67233-11.20132-66.1443-11.20132H2777.91714C2741.44518,458.40487,2711.77284,463.42978,2711.77284,469.60619Z" transform="translate(-2696.96933 -423.35677)"/><path class="cls-33" d="M2711.52612,469.02206v82.89775c0,6.17641,29.67233,11.20133,66.1443,11.20133h840.78343c36.472,0,66.1443-5.02492,66.1443-11.20133V469.02206c0-6.17641-29.67233-11.20133-66.1443-11.20133H2777.67042C2741.19845,457.82073,2711.52612,462.84565,2711.52612,469.02206Z" transform="translate(-2696.96933 -423.35677)"/><path class="cls-34" d="M2711.27939,468.43792v82.89776c0,6.17641,29.67233,11.20132,66.1443,11.20132h840.78344c36.472,0,66.1443-5.02491,66.1443-11.20132V468.43792c0-6.17641-29.67233-11.20132-66.1443-11.20132H2777.42369C2740.95172,457.2366,2711.27939,462.26151,2711.27939,468.43792Z" transform="translate(-2696.96933 -423.35677)"/><path class="cls-35" d="M2711.03267,467.85379v82.89775c0,6.17641,29.67233,11.20133,66.1443,11.20133H3617.9604c36.472,0,66.1443-5.02492,66.1443-11.20133V467.85379c0-6.17641-29.67233-11.20133-66.1443-11.20133H2777.177C2740.705,456.65246,2711.03267,461.67738,2711.03267,467.85379Z" transform="translate(-2696.96933 -423.35677)"/><path class="cls-36" d="M2710.78594,467.26965v82.89776c0,6.17641,29.67233,11.20132,66.1443,11.20132h840.78344c36.472,0,66.1443-5.02491,66.1443-11.20132V467.26965c0-6.17641-29.67234-11.20132-66.1443-11.20132H2776.93024C2740.45827,456.06833,2710.78594,461.09324,2710.78594,467.26965Z" transform="translate(-2696.96933 -423.35677)"/><path class="cls-37" d="M2710.53922,466.68552v82.89775c0,6.17641,29.67233,11.20133,66.14429,11.20133H3617.467c36.472,0,66.1443-5.02492,66.1443-11.20133V466.68552c0-6.17641-29.67233-11.20133-66.1443-11.20133H2776.68351C2740.21155,455.48419,2710.53922,460.50911,2710.53922,466.68552Z" transform="translate(-2696.96933 -423.35677)"/><path class="cls-38" d="M2710.29249,466.10138v82.89776c0,6.17641,29.67233,11.20132,66.1443,11.20132h840.78344c36.472,0,66.1443-5.02491,66.1443-11.20132V466.10138c0-6.17641-29.67234-11.20132-66.1443-11.20132H2776.43679C2739.96482,454.90006,2710.29249,459.925,2710.29249,466.10138Z" transform="translate(-2696.96933 -423.35677)"/><path class="cls-39" d="M2710.04577,465.51725V548.415c0,6.17641,29.67233,11.20133,66.14429,11.20133H3616.9735c36.472,0,66.1443-5.02492,66.1443-11.20133V465.51725c0-6.17641-29.67233-11.20133-66.1443-11.20133H2776.19006C2739.7181,454.31592,2710.04577,459.34084,2710.04577,465.51725Z" transform="translate(-2696.96933 -423.35677)"/><path class="cls-40" d="M2709.799,464.93311v82.89776c0,6.17641,29.67233,11.20133,66.1443,11.20133h840.78344c36.472,0,66.1443-5.02492,66.1443-11.20133V464.93311c0-6.17641-29.67234-11.20132-66.1443-11.20132H2775.94334C2739.47137,453.73179,2709.799,458.7567,2709.799,464.93311Z" transform="translate(-2696.96933 -423.35677)"/><path class="cls-41" d="M2709.55232,464.349v82.89775c0,6.17641,29.67233,11.20133,66.14429,11.20133h840.78344c36.472,0,66.1443-5.02492,66.1443-11.20133V464.349c0-6.17641-29.67233-11.20133-66.1443-11.20133H2775.69661C2739.22465,453.14765,2709.55232,458.17257,2709.55232,464.349Z" transform="translate(-2696.96933 -423.35677)"/><path class="cls-42" d="M2709.30559,463.76484V546.6626c0,6.17641,29.67233,11.20133,66.1443,11.20133h840.78344c36.472,0,66.1443-5.02492,66.1443-11.20133V463.76484c0-6.17641-29.67234-11.20132-66.1443-11.20132H2775.44989C2738.97792,452.56352,2709.30559,457.58843,2709.30559,463.76484Z" transform="translate(-2696.96933 -423.35677)"/><path class="cls-43" d="M2709.05886,463.18071v82.89775c0,6.17642,29.67234,11.20133,66.1443,11.20133H3615.9866c36.472,0,66.1443-5.02491,66.1443-11.20133V463.18071c0-6.17641-29.67233-11.20133-66.1443-11.20133H2775.20316C2738.7312,451.97938,2709.05886,457.0043,2709.05886,463.18071Z" transform="translate(-2696.96933 -423.35677)"/><path class="cls-44" d="M2708.81214,462.59657v82.89776c0,6.17641,29.67233,11.20133,66.1443,11.20133h840.78344c36.472,0,66.1443-5.02492,66.1443-11.20133V462.59657c0-6.17641-29.67234-11.20132-66.1443-11.20132H2774.95644C2738.48447,451.39525,2708.81214,456.42016,2708.81214,462.59657Z" transform="translate(-2696.96933 -423.35677)"/><path class="cls-45" d="M2708.56541,462.01244v82.89775c0,6.17642,29.67234,11.20133,66.1443,11.20133h840.78344c36.472,0,66.1443-5.02491,66.1443-11.20133V462.01244c0-6.17641-29.67233-11.20133-66.1443-11.20133H2774.70971C2738.23775,450.81111,2708.56541,455.836,2708.56541,462.01244Z" transform="translate(-2696.96933 -423.35677)"/><path class="cls-46" d="M2708.31869,461.4283v82.89776c0,6.17641,29.67233,11.20133,66.1443,11.20133h840.78344c36.472,0,66.14429-5.02492,66.14429-11.20133V461.4283c0-6.17641-29.67233-11.20132-66.14429-11.20132H2774.463C2737.991,450.227,2708.31869,455.25189,2708.31869,461.4283Z" transform="translate(-2696.96933 -423.35677)"/><path class="cls-47" d="M2708.072,460.84417v82.89775c0,6.17642,29.67234,11.20133,66.1443,11.20133H3614.9997c36.472,0,66.1443-5.02491,66.1443-11.20133V460.84417c0-6.17641-29.67233-11.20133-66.1443-11.20133H2774.21626C2737.7443,449.64284,2708.072,454.66776,2708.072,460.84417Z" transform="translate(-2696.96933 -423.35677)"/><path class="cls-48" d="M2707.82524,460.26v82.89776c0,6.17641,29.67233,11.20133,66.1443,11.20133H3614.753c36.472,0,66.14429-5.02492,66.14429-11.20133V460.26c0-6.17641-29.67233-11.20132-66.14429-11.20132H2773.96954C2737.49757,449.05871,2707.82524,454.08362,2707.82524,460.26Z" transform="translate(-2696.96933 -423.35677)"/><path class="cls-49" d="M2707.57851,459.6759v82.89775c0,6.17642,29.67234,11.20133,66.1443,11.20133h840.78344c36.472,0,66.1443-5.02491,66.1443-11.20133V459.6759c0-6.17641-29.67233-11.20133-66.1443-11.20133H2773.72281C2737.25085,448.47457,2707.57851,453.49949,2707.57851,459.6759Z" transform="translate(-2696.96933 -423.35677)"/><path class="cls-50" d="M2707.33179,459.09176v82.89776c0,6.17641,29.67233,11.20133,66.1443,11.20133h840.78343c36.472,0,66.1443-5.02492,66.1443-11.20133V459.09176c0-6.17641-29.67233-11.20132-66.1443-11.20132H2773.47609C2737.00412,447.89044,2707.33179,452.91535,2707.33179,459.09176Z" transform="translate(-2696.96933 -423.35677)"/><path class="cls-51" d="M2707.08506,458.50763v82.89775c0,6.17642,29.67233,11.20133,66.1443,11.20133H3614.0128c36.472,0,66.1443-5.02491,66.1443-11.20133V458.50763c0-6.17641-29.67233-11.20133-66.1443-11.20133H2773.22936C2736.75739,447.3063,2707.08506,452.33122,2707.08506,458.50763Z" transform="translate(-2696.96933 -423.35677)"/><path class="cls-52" d="M2706.83834,457.92349v82.89776c0,6.17641,29.67233,11.20133,66.1443,11.20133h840.78343c36.472,0,66.1443-5.02492,66.1443-11.20133V457.92349c0-6.17641-29.67233-11.20132-66.1443-11.20132H2772.98264C2736.51067,446.72217,2706.83834,451.74708,2706.83834,457.92349Z" transform="translate(-2696.96933 -423.35677)"/><path class="cls-53" d="M2706.59161,457.33936v82.89775c0,6.17642,29.67233,11.20133,66.1443,11.20133h840.78344c36.472,0,66.1443-5.02491,66.1443-11.20133V457.33936c0-6.17641-29.67233-11.20133-66.1443-11.20133H2772.73591C2736.26394,446.138,2706.59161,451.163,2706.59161,457.33936Z" transform="translate(-2696.96933 -423.35677)"/><path class="cls-54" d="M2706.34489,456.75522V539.653c0,6.17641,29.67233,11.20133,66.1443,11.20133h840.78343c36.472,0,66.1443-5.02492,66.1443-11.20133V456.75522c0-6.17641-29.67233-11.20132-66.1443-11.20132H2772.48919C2736.01722,445.5539,2706.34489,450.57881,2706.34489,456.75522Z" transform="translate(-2696.96933 -423.35677)"/><path class="cls-55" d="M2706.09816,456.17109v82.89776c0,6.17641,29.67233,11.20132,66.1443,11.20132H3613.0259c36.472,0,66.1443-5.02491,66.1443-11.20132V456.17109c0-6.17641-29.67234-11.20133-66.1443-11.20133H2772.24246C2735.77049,444.96976,2706.09816,449.99468,2706.09816,456.17109Z" transform="translate(-2696.96933 -423.35677)"/><path class="cls-56" d="M2705.85144,455.587v82.89776c0,6.17641,29.67233,11.20133,66.14429,11.20133h840.78344c36.472,0,66.1443-5.02492,66.1443-11.20133V455.587c0-6.17641-29.67233-11.20132-66.1443-11.20132H2771.99573C2735.52377,444.38563,2705.85144,449.41054,2705.85144,455.587Z" transform="translate(-2696.96933 -423.35677)"/><path class="cls-57" d="M2705.60471,455.00282v82.89776c0,6.17641,29.67233,11.20132,66.1443,11.20132h840.78344c36.472,0,66.1443-5.02491,66.1443-11.20132V455.00282c0-6.17641-29.67234-11.20133-66.1443-11.20133H2771.749C2735.277,443.80149,2705.60471,448.82641,2705.60471,455.00282Z" transform="translate(-2696.96933 -423.35677)"/><path class="cls-58" d="M2705.358,454.41868v82.89776c0,6.17641,29.67233,11.20133,66.14429,11.20133h840.78344c36.472,0,66.1443-5.02492,66.1443-11.20133V454.41868c0-6.17641-29.67233-11.20132-66.1443-11.20132H2771.50228C2735.03032,443.21736,2705.358,448.24227,2705.358,454.41868Z" transform="translate(-2696.96933 -423.35677)"/><path class="cls-59" d="M2705.11126,453.83455v82.89776c0,6.17641,29.67233,11.20132,66.1443,11.20132H3612.039c36.472,0,66.1443-5.02491,66.1443-11.20132V453.83455c0-6.17641-29.67234-11.20133-66.1443-11.20133H2771.25556C2734.78359,442.63322,2705.11126,447.65814,2705.11126,453.83455Z" transform="translate(-2696.96933 -423.35677)"/><path class="cls-60" d="M2704.86454,453.25041v82.89776c0,6.17641,29.67233,11.20133,66.14429,11.20133h840.78344c36.472,0,66.1443-5.02492,66.1443-11.20133V453.25041c0-6.17641-29.67233-11.20132-66.1443-11.20132H2771.00883C2734.53687,442.04909,2704.86454,447.074,2704.86454,453.25041Z" transform="translate(-2696.96933 -423.35677)"/><path class="cls-61" d="M2704.61781,452.66628V535.564c0,6.17641,29.67233,11.20132,66.1443,11.20132h840.78344c36.472,0,66.1443-5.02491,66.1443-11.20132V452.66628c0-6.17641-29.67234-11.20133-66.1443-11.20133H2770.76211C2734.29014,441.465,2704.61781,446.48987,2704.61781,452.66628Z" transform="translate(-2696.96933 -423.35677)"/><path class="cls-62" d="M2704.37108,452.08214V534.9799c0,6.17641,29.67234,11.20133,66.1443,11.20133h840.78344c36.472,0,66.1443-5.02492,66.1443-11.20133V452.08214c0-6.17641-29.67233-11.20132-66.1443-11.20132H2770.51538C2734.04342,440.88082,2704.37108,445.90573,2704.37108,452.08214Z" transform="translate(-2696.96933 -423.35677)"/><path class="cls-63" d="M2704.12436,451.498v82.89776c0,6.17641,29.67233,11.20133,66.1443,11.20133H3611.0521c36.472,0,66.14429-5.02492,66.14429-11.20133V451.498c0-6.17641-29.67233-11.20133-66.14429-11.20133H2770.26866C2733.79669,440.29668,2704.12436,445.3216,2704.12436,451.498Z" transform="translate(-2696.96933 -423.35677)"/><path class="cls-64" d="M2703.87763,450.91387v82.89776c0,6.17641,29.67234,11.20133,66.1443,11.20133h840.78344c36.472,0,66.1443-5.02492,66.1443-11.20133V450.91387c0-6.17641-29.67233-11.20132-66.1443-11.20132H2770.02193C2733.55,439.71255,2703.87763,444.73746,2703.87763,450.91387Z" transform="translate(-2696.96933 -423.35677)"/><path class="cls-65" d="M2703.63091,450.32974V533.2275c0,6.17641,29.67233,11.20133,66.1443,11.20133h840.78344c36.472,0,66.14429-5.02492,66.14429-11.20133V450.32974c0-6.17641-29.67233-11.20133-66.14429-11.20133H2769.77521C2733.30324,439.12841,2703.63091,444.15333,2703.63091,450.32974Z" transform="translate(-2696.96933 -423.35677)"/><path class="cls-66" d="M2703.38418,449.7456v82.89776c0,6.17641,29.67234,11.20133,66.1443,11.20133h840.78344c36.472,0,66.1443-5.02492,66.1443-11.20133V449.7456c0-6.17641-29.67233-11.20132-66.1443-11.20132H2769.52848C2733.05652,438.54428,2703.38418,443.56919,2703.38418,449.7456Z" transform="translate(-2696.96933 -423.35677)"/><path class="cls-67" d="M2703.13746,449.16147v82.89776c0,6.17641,29.67233,11.20133,66.1443,11.20133H3610.0652c36.472,0,66.14429-5.02492,66.14429-11.20133V449.16147c0-6.17641-29.67233-11.20133-66.14429-11.20133H2769.28176C2732.80979,437.96014,2703.13746,442.98506,2703.13746,449.16147Z" transform="translate(-2696.96933 -423.35677)"/><path class="cls-68" d="M2702.89073,448.57733v82.89776c0,6.17642,29.67234,11.20133,66.1443,11.20133h840.78344c36.472,0,66.1443-5.02491,66.1443-11.20133V448.57733c0-6.17641-29.67233-11.20132-66.1443-11.20132H2769.035C2732.56307,437.376,2702.89073,442.40092,2702.89073,448.57733Z" transform="translate(-2696.96933 -423.35677)"/><path class="cls-69" d="M2702.644,447.9932V530.891c0,6.17641,29.67233,11.20133,66.1443,11.20133h840.78343c36.472,0,66.1443-5.02492,66.1443-11.20133V447.9932c0-6.17641-29.67233-11.20133-66.1443-11.20133H2768.78831C2732.31634,436.79187,2702.644,441.81679,2702.644,447.9932Z" transform="translate(-2696.96933 -423.35677)"/><path class="cls-70" d="M2702.39728,447.40906v82.89776c0,6.17642,29.67233,11.20133,66.1443,11.20133H3609.325c36.472,0,66.1443-5.02491,66.1443-11.20133V447.40906c0-6.17641-29.67233-11.20132-66.1443-11.20132H2768.54158C2732.06961,436.20774,2702.39728,441.23265,2702.39728,447.40906Z" transform="translate(-2696.96933 -423.35677)"/><path class="cls-71" d="M2702.15056,446.82493v82.89776c0,6.17641,29.67233,11.20133,66.1443,11.20133h840.78343c36.472,0,66.1443-5.02492,66.1443-11.20133V446.82493c0-6.17641-29.67233-11.20133-66.1443-11.20133H2768.29486C2731.82289,435.6236,2702.15056,440.64852,2702.15056,446.82493Z" transform="translate(-2696.96933 -423.35677)"/><path class="cls-72" d="M2701.90383,446.24079v82.89776c0,6.17642,29.67233,11.20133,66.1443,11.20133h840.78344c36.472,0,66.1443-5.02491,66.1443-11.20133V446.24079c0-6.17641-29.67233-11.20132-66.1443-11.20132H2768.04813C2731.57616,435.03947,2701.90383,440.06438,2701.90383,446.24079Z" transform="translate(-2696.96933 -423.35677)"/><path class="cls-73" d="M2701.65711,445.65666v82.89776c0,6.17641,29.67233,11.20133,66.14429,11.20133h840.78344c36.472,0,66.1443-5.02492,66.1443-11.20133V445.65666c0-6.17641-29.67233-11.20133-66.1443-11.20133H2767.8014C2731.32944,434.45533,2701.65711,439.48025,2701.65711,445.65666Z" transform="translate(-2696.96933 -423.35677)"/><path class="cls-74" d="M2701.41038,445.07252v82.89776c0,6.17642,29.67233,11.20133,66.1443,11.20133h840.78344c36.472,0,66.1443-5.02491,66.1443-11.20133V445.07252c0-6.17641-29.67234-11.20132-66.1443-11.20132H2767.55468C2731.08271,433.8712,2701.41038,438.89611,2701.41038,445.07252Z" transform="translate(-2696.96933 -423.35677)"/><path class="cls-75" d="M2701.16366,444.48839v82.89776c0,6.17641,29.67233,11.20133,66.14429,11.20133h840.78344c36.472,0,66.1443-5.02492,66.1443-11.20133V444.48839c0-6.17641-29.67233-11.20133-66.1443-11.20133H2767.308C2730.836,433.28706,2701.16366,438.312,2701.16366,444.48839Z" transform="translate(-2696.96933 -423.35677)"/><path class="cls-76" d="M2700.91693,443.90425V526.802c0,6.17642,29.67233,11.20133,66.1443,11.20133h840.78344c36.472,0,66.1443-5.02491,66.1443-11.20133V443.90425c0-6.17641-29.67234-11.20132-66.1443-11.20132H2767.06123C2730.58926,432.70293,2700.91693,437.72784,2700.91693,443.90425Z" transform="translate(-2696.96933 -423.35677)"/><path class="cls-77" d="M2700.67021,443.32012v82.89776c0,6.17641,29.67233,11.20133,66.14429,11.20133h840.78344c36.472,0,66.1443-5.02492,66.1443-11.20133V443.32012c0-6.17641-29.67233-11.20133-66.1443-11.20133H2766.8145C2730.34254,432.11879,2700.67021,437.14371,2700.67021,443.32012Z" transform="translate(-2696.96933 -423.35677)"/><path class="cls-78" d="M2700.42348,442.736v82.89776c0,6.17642,29.67233,11.20133,66.1443,11.20133h840.78344c36.472,0,66.1443-5.02491,66.1443-11.20133V442.736c0-6.17641-29.67234-11.20132-66.1443-11.20132H2766.56778C2730.09581,431.53466,2700.42348,436.55957,2700.42348,442.736Z" transform="translate(-2696.96933 -423.35677)"/><path class="cls-79" d="M2700.17675,442.15185v82.89776c0,6.17641,29.67234,11.20133,66.1443,11.20133h840.78344c36.472,0,66.1443-5.02492,66.1443-11.20133V442.15185c0-6.17641-29.67233-11.20133-66.1443-11.20133H2766.32105C2729.84909,430.95052,2700.17675,435.97544,2700.17675,442.15185Z" transform="translate(-2696.96933 -423.35677)"/><path class="cls-80" d="M2699.93,441.56771v82.89777c0,6.17641,29.67233,11.20132,66.1443,11.20132h840.78344c36.472,0,66.1443-5.02491,66.1443-11.20132V441.56771c0-6.17641-29.67234-11.20132-66.1443-11.20132H2766.07433C2729.60236,430.36639,2699.93,435.3913,2699.93,441.56771Z" transform="translate(-2696.96933 -423.35677)"/><path class="cls-81" d="M2699.6833,440.98358v82.89776c0,6.17641,29.67234,11.20133,66.1443,11.20133H3606.611c36.472,0,66.1443-5.02492,66.1443-11.20133V440.98358c0-6.17641-29.67233-11.20133-66.1443-11.20133H2765.8276C2729.35564,429.78225,2699.6833,434.80717,2699.6833,440.98358Z" transform="translate(-2696.96933 -423.35677)"/><path class="cls-82" d="M2699.43658,440.39944v82.89777c0,6.17641,29.67233,11.20132,66.1443,11.20132h840.78344c36.472,0,66.14429-5.02491,66.14429-11.20132V440.39944c0-6.17641-29.67233-11.20132-66.14429-11.20132H2765.58088C2729.10891,429.19812,2699.43658,434.223,2699.43658,440.39944Z" transform="translate(-2696.96933 -423.35677)"/><path class="cls-83" d="M2699.18985,439.81531v82.89776c0,6.17641,29.67234,11.20133,66.1443,11.20133h840.78344c36.472,0,66.1443-5.02492,66.1443-11.20133V439.81531c0-6.17641-29.67233-11.20133-66.1443-11.20133H2765.33415C2728.86219,428.614,2699.18985,433.6389,2699.18985,439.81531Z" transform="translate(-2696.96933 -423.35677)"/><path class="cls-84" d="M2698.94313,439.23117v82.89777c0,6.17641,29.67233,11.20132,66.1443,11.20132h840.78344c36.472,0,66.14429-5.02491,66.14429-11.20132V439.23117c0-6.17641-29.67233-11.20132-66.14429-11.20132H2765.08743C2728.61546,428.02985,2698.94313,433.05476,2698.94313,439.23117Z" transform="translate(-2696.96933 -423.35677)"/><path class="cls-85" d="M2698.6964,438.647V521.5448c0,6.17641,29.67234,11.20133,66.1443,11.20133h840.78344c36.472,0,66.1443-5.02492,66.1443-11.20133V438.647c0-6.17641-29.67233-11.20133-66.1443-11.20133H2764.8407C2728.36874,427.44571,2698.6964,432.47063,2698.6964,438.647Z" transform="translate(-2696.96933 -423.35677)"/><path class="cls-86" d="M2698.44968,438.0629v82.89777c0,6.17641,29.67233,11.20132,66.1443,11.20132h840.78343c36.472,0,66.1443-5.02491,66.1443-11.20132V438.0629c0-6.17641-29.67233-11.20132-66.1443-11.20132H2764.594C2728.122,426.86158,2698.44968,431.88649,2698.44968,438.0629Z" transform="translate(-2696.96933 -423.35677)"/><path class="cls-87" d="M2698.203,437.47877v82.89776c0,6.17641,29.67233,11.20133,66.1443,11.20133h840.78344c36.472,0,66.1443-5.02492,66.1443-11.20133V437.47877c0-6.17641-29.67233-11.20133-66.1443-11.20133H2764.34725C2727.87528,426.27744,2698.203,431.30236,2698.203,437.47877Z" transform="translate(-2696.96933 -423.35677)"/><path class="cls-88" d="M2697.95623,436.89463V519.7924c0,6.17641,29.67233,11.20133,66.1443,11.20133H3604.884c36.472,0,66.1443-5.02492,66.1443-11.20133V436.89463c0-6.17641-29.67233-11.20132-66.1443-11.20132H2764.10053C2727.62856,425.69331,2697.95623,430.71822,2697.95623,436.89463Z" transform="translate(-2696.96933 -423.35677)"/><path class="cls-89" d="M2697.7095,436.3105v82.89776c0,6.17641,29.67233,11.20133,66.1443,11.20133h840.78344c36.472,0,66.1443-5.02492,66.1443-11.20133V436.3105c0-6.17641-29.67233-11.20133-66.1443-11.20133H2763.8538C2727.38183,425.10917,2697.7095,430.13409,2697.7095,436.3105Z" transform="translate(-2696.96933 -423.35677)"/><path class="cls-90" d="M2697.46278,435.72636v82.89777c0,6.17641,29.67233,11.20133,66.1443,11.20133h840.78343c36.472,0,66.1443-5.02492,66.1443-11.20133V435.72636c0-6.17641-29.67233-11.20132-66.1443-11.20132H2763.60708C2727.13511,424.525,2697.46278,429.55,2697.46278,435.72636Z" transform="translate(-2696.96933 -423.35677)"/><path class="cls-91" d="M2697.21605,435.14223V518.04c0,6.17641,29.67233,11.20133,66.1443,11.20133h840.78344c36.472,0,66.1443-5.02492,66.1443-11.20133V435.14223c0-6.17641-29.67234-11.20133-66.1443-11.20133H2763.36035C2726.88838,423.9409,2697.21605,428.96582,2697.21605,435.14223Z" transform="translate(-2696.96933 -423.35677)"/><path d="M2696.96933,434.55809v82.89777c0,6.17641,29.67233,11.20133,66.14429,11.20133h840.78344c36.472,0,66.1443-5.02492,66.1443-11.20133V434.55809c0-6.17641-29.67233-11.20132-66.1443-11.20132H2763.11362C2726.64166,423.35677,2696.96933,428.38168,2696.96933,434.55809Z" transform="translate(-2696.96933 -423.35677)"/></g></g></g></svg>